<svg width="1200" height="630" xmlns="http://www.w3.org/2000/svg">
  <!-- Background -->
  <rect width="1200" height="630" fill="#e8ecef"/>
  
  <!-- Geometric shapes background -->
  <rect x="1000" y="50" width="150" height="150" fill="#ffff00" transform="rotate(45 1075 125)"/>
  <rect x="50" y="400" width="100" height="100" fill="#ff0000"/>
  <rect x="850" y="200" width="80" height="180" fill="#0000ff" transform="rotate(-12 890 290)"/>
  <rect x="950" y="450" width="120" height="120" fill="#00ff00" transform="rotate(12 1010 510)"/>
  
  <!-- Main container -->
  <rect x="100" y="100" width="1000" height="430" fill="#e8ecef" stroke="#1a1a1a" stroke-width="6"/>
  
  <!-- Title section -->
  <rect x="150" y="150" width="900" height="120" fill="#1a1a1a"/>
  <text x="200" y="220" font-family="monospace" font-size="48" font-weight="900" fill="#e8ecef">SANTIAGO OCHOA</text>
  
  <!-- Subtitle -->
  <rect x="150" y="290" width="600" height="80" fill="#ffff00" stroke="#1a1a1a" stroke-width="4"/>
  <text x="180" y="320" font-family="monospace" font-size="18" font-weight="700" fill="#1a1a1a">DEVELOPER &amp; DATA SCIENTIST</text>
  <text x="180" y="345" font-family="monospace" font-size="16" font-weight="600" fill="#1a1a1a">FULL-STACK + ML + NO BULLSHIT</text>
  
  <!-- Status indicator -->
  <rect x="770" y="290" width="280" height="80" fill="#00ff00" stroke="#1a1a1a" stroke-width="4"/>
  <text x="800" y="320" font-family="monospace" font-size="18" font-weight="700" fill="#1a1a1a">AVAILABLE FOR HIRE</text>
  <text x="800" y="345" font-family="monospace" font-size="14" font-weight="600" fill="#1a1a1a">REMOTE / WORLDWIDE</text>
  
  <!-- Skills section -->
  <rect x="150" y="390" width="200" height="100" fill="#0000ff" stroke="#1a1a1a" stroke-width="4"/>
  <text x="170" y="415" font-family="monospace" font-size="12" font-weight="700" fill="#e8ecef">→ REACT/ASTRO</text>
  <text x="170" y="435" font-family="monospace" font-size="12" font-weight="700" fill="#e8ecef">→ PYTHON/NODE</text>
  <text x="170" y="455" font-family="monospace" font-size="12" font-weight="700" fill="#e8ecef">→ AI/ML</text>
  <text x="170" y="475" font-family="monospace" font-size="12" font-weight="700" fill="#e8ecef">→ AWS/DOCKER</text>
  
  <!-- Contact info -->
  <rect x="370" y="390" width="300" height="100" fill="#ff0000" stroke="#1a1a1a" stroke-width="4"/>
  <text x="390" y="415" font-family="monospace" font-size="12" font-weight="700" fill="#e8ecef">GITHUB: sochoav8a</text>
  <text x="390" y="435" font-family="monospace" font-size="12" font-weight="700" fill="#e8ecef">EMAIL: sochoav8a@gmail.com</text>
  <text x="390" y="455" font-family="monospace" font-size="12" font-weight="700" fill="#e8ecef">WEB: sochoav8a.github.io</text>
  
  <!-- Portfolio badge -->
  <rect x="690" y="390" width="260" height="100" fill="#e8ecef" stroke="#1a1a1a" stroke-width="4"/>
  <text x="710" y="415" font-family="monospace" font-size="16" font-weight="900" fill="#1a1a1a">PORTFOLIO 2025</text>
  <text x="710" y="435" font-family="monospace" font-size="12" font-weight="700" fill="#1a1a1a">BUILT WITH:</text>
  <text x="710" y="455" font-family="monospace" font-size="12" font-weight="700" fill="#1a1a1a">ASTRO + TAILWIND</text>
  <text x="710" y="475" font-family="monospace" font-size="12" font-weight="700" fill="#1a1a1a">BRUTALIST DESIGN</text>
</svg> 